# xmcd
#
# Track frame offsets:
#	150
#	2188
#	19498
#	20388
#	36334
#	61720
#	89014
#	91207
#	116516
#	118298
#	139997
#	166398
#	185007
#	186622
#	203446
#	204853
#	227747
#
# Disc length: 3395 seconds
#
# Revision: 1
# Processed by: cddbd v1.5.2PL0 Copyright (c) Steve Scherf et al.
# Submitted via: audiograbber 1.83.01
#
DISCID=ee0d4111
DTITLE=Robert Randolph And The Family Band - We Walk This Road
DYEAR=2010
DGENRE=Blues
TTITLE0=Segue One
TTITLE1=Travelling Shoes
TTITLE2=Segue Two
TTITLE3=Back To The Wall
TTITLE4=Shot Of Love
TTITLE5=I Still Belong To Jesus
TTITLE6=Segue Three
TTITLE7=If I Had My Way
TTITLE8=Segue Four
TTITLE9=Don´t Change
TTITLE10=I Don´t Wanna Be A Soldier Mama
TTITLE11=Walk Don´t Walk
TTITLE12=Segue Five
TTITLE13=Dry Bones
TTITLE14=Segue Six
TTITLE15=I´m Not Listening
TTITLE16=Salvation
EXTD=
EXTT0=
EXTT1=
EXTT2=
EXTT3=
EXTT4=
EXTT5=
EXTT6=
EXTT7=
EXTT8=
EXTT9=
EXTT10=
EXTT11=
EXTT12=
EXTT13=
EXTT14=
EXTT15=
EXTT16=
PLAYORDER=
